<svg xmlns="http://www.w3.org/2000/svg" width="240" height="240" viewBox="0 0 240 240" role="img" aria-label="morro symbol"><g><defs>
<linearGradient id="g-local" gradientUnits="userSpaceOnUse" x1="30" y1="165" x2="210" y2="80"><stop offset="0" stop-color="#FFAA24"/><stop offset=".45" stop-color="#EA3C89"/><stop offset=".78" stop-color="#08A7CF"/><stop offset="1" stop-color="#5CBA71"/></linearGradient>
<linearGradient id="g-shared" gradientUnits="userSpaceOnUse" x1="30" y1="180" x2="200" y2="100"><stop offset="0" stop-color="#07579E"/><stop offset=".6" stop-color="#08A7CF"/><stop offset="1" stop-color="#0AACB0"/></linearGradient>
<linearGradient id="g-energy" gradientUnits="userSpaceOnUse" x1="50" y1="140" x2="210" y2="130"><stop offset="0" stop-color="#FFAA24"/><stop offset=".55" stop-color="#EA3C89"/><stop offset="1" stop-color="#08A7CF"/></linearGradient>
</defs><path d="M31 165 C55 144 63 95 86 68 C96 55 107 70 116 104 C125 138 135 151 148 132 C159 115 164 78 181 61 C192 51 203 87 209 128 C214 157 210 176 202 186" fill="none" stroke="url(#g-local)" stroke-width="5.1" stroke-linecap="round" stroke-linejoin="round"/><path d="M31 165 C67 186 94 188 119 162 C134 147 143 136 153 132 C173 123 191 142 202 186" fill="none" stroke="url(#g-shared)" stroke-width="5.1" stroke-linecap="round" stroke-linejoin="round"/><path d="M86 68 C106 89 112 128 119 162 C126 187 145 202 171 203" fill="none" stroke="url(#g-shared)" stroke-width="5.1" stroke-linecap="round" stroke-linejoin="round"/><path d="M52 136 C86 127 111 133 148 132 C169 132 186 129 209 128" fill="none" stroke="url(#g-energy)" stroke-width="5.1" stroke-linecap="round" stroke-linejoin="round"/><path d="M68 176 C89 158 102 148 119 162 C133 174 151 171 170 154" fill="none" stroke="url(#g-energy)" stroke-width="5.1" stroke-linecap="round" stroke-linejoin="round"/><circle cx="31" cy="165" r="11" fill="#0867B2"/><circle cx="86" cy="68" r="11.5" fill="#FFAA24"/><circle cx="119" cy="162" r="12.5" fill="#FA7951"/><circle cx="148" cy="132" r="10.5" fill="#EA3C89"/><circle cx="181" cy="61" r="11.5" fill="#08A7CF"/><circle cx="209" cy="128" r="10.5" fill="#0AACB0"/><circle cx="171" cy="203" r="10" fill="#056FB5"/></g></svg>