<svg xmlns="http://www.w3.org/2000/svg" width="240" height="240" viewBox="0 0 240 240" role="img" aria-label="tdp symbol"><g><defs>
<linearGradient id="g-blue" gradientUnits="userSpaceOnUse" x1="35" y1="80" x2="170" y2="215"><stop offset="0" stop-color="#07579E"/><stop offset="1" stop-color="#056FB5"/></linearGradient>
<linearGradient id="g-cyan" gradientUnits="userSpaceOnUse" x1="100" y1="25" x2="170" y2="210"><stop offset="0" stop-color="#056FB5"/><stop offset=".5" stop-color="#19B6D8"/><stop offset="1" stop-color="#056FB5"/></linearGradient>
<linearGradient id="g-green" gradientUnits="userSpaceOnUse" x1="105" y1="25" x2="220" y2="175"><stop offset="0" stop-color="#0AACB0"/><stop offset=".72" stop-color="#5CBA71"/><stop offset="1" stop-color="#0AACB0"/></linearGradient>
<linearGradient id="g-mix" gradientUnits="userSpaceOnUse" x1="40" y1="115" x2="215" y2="170"><stop offset="0" stop-color="#07579E"/><stop offset=".56" stop-color="#056FB5"/><stop offset="1" stop-color="#0AACB0"/></linearGradient>
</defs><path d="M38.5 112.5 C46 78 71 47 104.5 30.5" fill="none" stroke="url(#g-blue)" stroke-width="7.0" stroke-linecap="round" stroke-linejoin="round"/><path d="M104.5 30.5 C144 24 181 42 211.5 75.5" fill="none" stroke="url(#g-green)" stroke-width="7.0" stroke-linecap="round" stroke-linejoin="round"/><path d="M211.5 75.5 C226 104 225 140 208.5 166.5" fill="none" stroke="url(#g-green)" stroke-width="7.0" stroke-linecap="round" stroke-linejoin="round"/><path d="M208.5 166.5 C190 190 167 205 140.5 209.5" fill="none" stroke="url(#g-blue)" stroke-width="7.0" stroke-linecap="round" stroke-linejoin="round"/><path d="M140.5 209.5 C111 217 89 211 73.5 194.5" fill="none" stroke="url(#g-blue)" stroke-width="7.0" stroke-linecap="round" stroke-linejoin="round"/><path d="M73.5 194.5 C49 180 35 150 38.5 112.5" fill="none" stroke="url(#g-blue)" stroke-width="7.0" stroke-linecap="round" stroke-linejoin="round"/><path d="M117 35 C143 45 159 60 158.5 74.5 C173 98 174 128 157.5 149.5 C161 175 154 195 140.5 209.5" fill="none" stroke="url(#g-cyan)" stroke-width="7.0" stroke-linecap="round" stroke-linejoin="round"/><path d="M38.5 112.5 C75 137 112 146 157.5 149.5 C175 155 191 161 208.5 166.5" fill="none" stroke="url(#g-mix)" stroke-width="7.0" stroke-linecap="round" stroke-linejoin="round"/><circle cx="104.5" cy="30.5" r="12.8" fill="#056FB5"/><circle cx="38.5" cy="112.5" r="12.4" fill="#014D86"/><circle cx="211.5" cy="75.5" r="12.600000000000001" fill="#5CBA71"/><circle cx="157.5" cy="149.5" r="13.600000000000001" fill="#FA7951"/><circle cx="73.5" cy="194.5" r="12.600000000000001" fill="#056A9C"/><circle cx="140.5" cy="209.5" r="11.600000000000001" fill="#056DA3"/></g></svg>